<?xml version="1.0" encoding="utf-8"?>
<!-- Generator: Adobe Illustrator 19.2.1, SVG Export Plug-In . SVG Version: 6.00 Build 0)  -->
<!DOCTYPE svg PUBLIC "-//W3C//DTD SVG 1.1//EN" "http://www.w3.org/Graphics/SVG/1.1/DTD/svg11.dtd">
<svg version="1.1" xmlns="http://www.w3.org/2000/svg" xmlns:xlink="http://www.w3.org/1999/xlink" x="0px" y="0px"
	 viewBox="0 0 36 36" style="enable-background:new 0 0 36 36;" xml:space="preserve">
<style type="text/css">
	.st0{fill:#818285;}
</style>
<g id="Layer_1">
	<g>
		<path class="st0" d="M17.4,23.6c0.2,0.2,0.4,0.2,0.6,0.2s0.4-0.1,0.6-0.2l7.5-7.5c0.3-0.3,0.3-0.9,0-1.2c-0.3-0.3-0.9-0.3-1.2,0
			L18,21.8l-6.9-6.9c-0.3-0.3-0.9-0.3-1.2,0c-0.3,0.3-0.3,0.9,0,1.2L17.4,23.6z"/>
		<path class="st0" d="M0.5,18c0,9.5,8,17.5,17.5,17.5s17.5-8,17.5-17.5S27.5,0.5,18,0.5S0.5,8.5,0.5,18z M18,2.2
			c8.6,0,15.8,7.3,15.8,15.8S26.6,33.8,18,33.8S2.2,26.6,2.2,18S9.4,2.2,18,2.2z"/>
	</g>
</g>
<g id="Brendan_x5F_Comps_xA0_Image">
</g>
</svg>
