<svg id="Layer_1" data-name="Layer 1" xmlns="http://www.w3.org/2000/svg" xmlns:xlink="http://www.w3.org/1999/xlink" viewBox="0 0 127.76 21.17"><defs><style>.cls-1{fill:none;}.cls-2{fill:#888;}.cls-3{fill:#f4762c;}.cls-4{clip-path:url(#clip-path);}</style><clipPath id="clip-path" transform="translate(-1 -1.6)"><rect class="cls-1" x="107.11" y="1.85" width="11.01" height="16.47"/></clipPath></defs><title>metaproject_logo</title><path class="cls-2" d="M16,6A3.49,3.49,0,0,1,17.43,7a3.45,3.45,0,0,1,.68,1.54,10.66,10.66,0,0,1,.11,1.77l0,7.56H15V10.28a2.51,2.51,0,0,0-.22-1.12,1.57,1.57,0,0,0-1.54-.84A1.8,1.8,0,0,0,11.43,9.4a3.39,3.39,0,0,0-.25,1.38v7.15H8V10.78a4,4,0,0,0-.22-1.55,1.54,1.54,0,0,0-1.55-.87,1.85,1.85,0,0,0-1.81.87,3.35,3.35,0,0,0-.25,1.48v7.22H1v-12H4V7.7a5.05,5.05,0,0,1,1.1-1.33,3.77,3.77,0,0,1,2.37-.7,3.74,3.74,0,0,1,2.22.61,3.52,3.52,0,0,1,1,1.44,4,4,0,0,1,1.53-1.55,4.67,4.67,0,0,1,2.16-.5A4.18,4.18,0,0,1,16,6" transform="translate(-1 -1.6)"/><path class="cls-2" d="M26.59,6.17a4.88,4.88,0,0,1,2.07,1.78,5.9,5.9,0,0,1,1,2.48,15.37,15.37,0,0,1,.1,2.38H21a2.88,2.88,0,0,0,1.26,2.53,3.19,3.19,0,0,0,1.73.45,2.44,2.44,0,0,0,2.39-1.38h3.2a3.92,3.92,0,0,1-1.16,2.17,5.83,5.83,0,0,1-4.51,1.75,6.54,6.54,0,0,1-4.23-1.48q-1.83-1.48-1.83-4.8a6.5,6.5,0,0,1,1.65-4.78A5.78,5.78,0,0,1,23.77,5.6a6.83,6.83,0,0,1,2.82.56M21.9,8.88a3.26,3.26,0,0,0-.84,1.86h5.41a2.62,2.62,0,0,0-.84-1.9,2.75,2.75,0,0,0-1.86-.65,2.49,2.49,0,0,0-1.87.69" transform="translate(-1 -1.6)"/><path class="cls-2" d="M28,8.27V6h1.67V2.69h3.1V6h1.95V8.27H32.73v6.34a1.43,1.43,0,0,0,.19.92,2.06,2.06,0,0,0,1.14.18h0.3l0.31,0V18l-1.49.05a4,4,0,0,1-3-.77,2.29,2.29,0,0,1-.53-1.66V8.27H28Z" transform="translate(-1 -1.6)"/><path class="cls-2" d="M39.18,10.63a5,5,0,0,0,1.25-.28,0.94,0.94,0,0,0,.68-0.89,1.05,1.05,0,0,0-.52-1,3.28,3.28,0,0,0-1.52-.28,2,2,0,0,0-1.6.55A2.27,2.27,0,0,0,37,9.81H34a4.59,4.59,0,0,1,.88-2.59q1.25-1.59,4.29-1.59a7.65,7.65,0,0,1,3.52.78,3,3,0,0,1,1.54,3v5.51q0,0.57,0,1.39a1.74,1.74,0,0,0,.19.84,1.12,1.12,0,0,0,.46.36v0.46H41.49a3.5,3.5,0,0,1-.2-0.68q-0.06-.32-0.09-0.73a6.48,6.48,0,0,1-1.51,1.2,4.55,4.55,0,0,1-2.3.58,4,4,0,0,1-2.71-.93,3.31,3.31,0,0,1-1.07-2.64,3.42,3.42,0,0,1,1.72-3.2,7.68,7.68,0,0,1,2.77-.77Zm1.92,1.46a3.48,3.48,0,0,1-.61.3,5.15,5.15,0,0,1-.84.21l-0.71.13a4.69,4.69,0,0,0-1.44.43,1.43,1.43,0,0,0-.74,1.33,1.39,1.39,0,0,0,.45,1.16,1.72,1.72,0,0,0,1.1.36,3.28,3.28,0,0,0,1.89-.59,2.52,2.52,0,0,0,.9-2.17V12.09Z" transform="translate(-1 -1.6)"/><path class="cls-2" d="M54.69,7.21a6.4,6.4,0,0,1,1.47,4.56,7.2,7.2,0,0,1-1.44,4.83A4.66,4.66,0,0,1,51,18.27a3.87,3.87,0,0,1-2.39-.72,4.62,4.62,0,0,1-1-1.16v6.25h-3.1V5.92h3V7.7A5,5,0,0,1,48.6,6.46a4,4,0,0,1,2.5-.8,4.75,4.75,0,0,1,3.58,1.55M52.28,9.47A2.23,2.23,0,0,0,50.21,8.4,2.36,2.36,0,0,0,47.84,10a6.08,6.08,0,0,0-.33,2.18,3.46,3.46,0,0,0,1.12,2.94,2.58,2.58,0,0,0,1.58.5,2.3,2.3,0,0,0,2-1,4.69,4.69,0,0,0,.7-2.7,4.69,4.69,0,0,0-.64-2.46" transform="translate(-1 -1.6)"/><path class="cls-2" d="M62.68,5.64l0.27,0V8.87l-0.53,0H62a2.6,2.6,0,0,0-2.54,1.23,4.8,4.8,0,0,0-.36,2.14v5.74H56v-12h3V8a6.63,6.63,0,0,1,1.27-1.64,3.45,3.45,0,0,1,2.29-.74h0.15" transform="translate(-1 -1.6)"/><path class="cls-2" d="M72.32,16.46a5.58,5.58,0,0,1-4.61,1.88,5.59,5.59,0,0,1-4.61-1.88,7,7,0,0,1-1.52-4.52,7,7,0,0,1,1.52-4.5,5.55,5.55,0,0,1,4.61-1.9,5.55,5.55,0,0,1,4.61,1.9,7,7,0,0,1,1.52,4.5,7,7,0,0,1-1.52,4.52m-2.51-1.73a4.55,4.55,0,0,0,.74-2.78,4.52,4.52,0,0,0-.74-2.78,2.79,2.79,0,0,0-4.23,0,4.5,4.5,0,0,0-.74,2.78,4.52,4.52,0,0,0,.74,2.78,2.78,2.78,0,0,0,4.23,0" transform="translate(-1 -1.6)"/><path class="cls-2" d="M72.05,20.23l0.37,0h0.2a1,1,0,0,0,.7-0.23,1.21,1.21,0,0,0,.24-0.88V6H76.7V19.21A4.18,4.18,0,0,1,76,21.9a3.54,3.54,0,0,1-2.81.87H72.75l-0.7,0V20.23ZM76.7,4.49H73.56V1.6H76.7v2.9Z" transform="translate(-1 -1.6)"/><path class="cls-2" d="M85.15,6.17a4.88,4.88,0,0,1,2.07,1.78,5.9,5.9,0,0,1,1,2.48,15.35,15.35,0,0,1,.1,2.38H79.54a2.88,2.88,0,0,0,1.26,2.53,3.19,3.19,0,0,0,1.73.45,2.44,2.44,0,0,0,2.39-1.38h3.2A3.92,3.92,0,0,1,87,16.58a5.83,5.83,0,0,1-4.52,1.75,6.54,6.54,0,0,1-4.23-1.48q-1.83-1.48-1.83-4.8A6.5,6.5,0,0,1,78,7.27,5.78,5.78,0,0,1,82.33,5.6a6.83,6.83,0,0,1,2.82.56M80.45,8.88a3.26,3.26,0,0,0-.84,1.86H85a2.62,2.62,0,0,0-.84-1.9,2.75,2.75,0,0,0-1.86-.65,2.49,2.49,0,0,0-1.87.69" transform="translate(-1 -1.6)"/><path class="cls-2" d="M95,10.23A2.78,2.78,0,0,0,94.59,9a1.9,1.9,0,0,0-1.64-.73,2.16,2.16,0,0,0-2.17,1.57,6.54,6.54,0,0,0-.31,2.22,6,6,0,0,0,.31,2.12,2.1,2.1,0,0,0,2.12,1.5,1.87,1.87,0,0,0,1.57-.59A3,3,0,0,0,95,13.56h3.2a5.25,5.25,0,0,1-1,2.71,5,5,0,0,1-4.38,2.06,5.12,5.12,0,0,1-4.27-1.72,6.94,6.94,0,0,1-1.37-4.45,7,7,0,0,1,1.51-4.81,5.26,5.26,0,0,1,4.17-1.72,6.28,6.28,0,0,1,3.7,1,4.71,4.71,0,0,1,1.7,3.58H95Z" transform="translate(-1 -1.6)"/><path class="cls-2" d="M96.93,8.27V6H98.6V2.69h3.1V6h1.95V8.27H101.7v6.34a1.43,1.43,0,0,0,.19.92,2.06,2.06,0,0,0,1.14.18h0.3l0.31,0V18l-1.49.05a4,4,0,0,1-3-.77,2.29,2.29,0,0,1-.53-1.66V8.27H96.93Z" transform="translate(-1 -1.6)"/><path class="cls-3" d="M125.29,6a1.6,1.6,0,0,0-.3-0.85,1.72,1.72,0,0,0-1.53-.75,2.26,2.26,0,0,0-2.18,1.72,10.65,10.65,0,0,0-.48,2.8,3.52,3.52,0,0,1,1.35-1A5,5,0,0,1,127.4,9a5.16,5.16,0,0,1,1.36,3.69,6.23,6.23,0,0,1-1.33,3.94,4.93,4.93,0,0,1-4.14,1.71,4.76,4.76,0,0,1-4.45-2.52,10.28,10.28,0,0,1-1.11-5.09,23.1,23.1,0,0,1,.15-3,9.09,9.09,0,0,1,1.07-3.39,5.46,5.46,0,0,1,1.79-1.86,4.83,4.83,0,0,1,2.65-.7,5.24,5.24,0,0,1,3.55,1.14,4.33,4.33,0,0,1,1.49,3h-3.13Zm-3.72,9a2.21,2.21,0,0,0,1.76.81A2,2,0,0,0,125,15a3.28,3.28,0,0,0,.6-2,3.06,3.06,0,0,0-.68-2.14,2.19,2.19,0,0,0-1.67-.74,2.23,2.23,0,0,0-1.42.48,2.74,2.74,0,0,0-.92,2.31,3.13,3.13,0,0,0,.69,2.1" transform="translate(-1 -1.6)"/><g class="cls-4"><path class="cls-3" d="M116.9,4a12.42,12.42,0,0,1,1.23,6.1,12.36,12.36,0,0,1-1.23,6.09,5.35,5.35,0,0,1-8.55,0,12.35,12.35,0,0,1-1.23-6.09A12.42,12.42,0,0,1,108.34,4a5.33,5.33,0,0,1,8.55,0m-6.13,10.31a1.82,1.82,0,0,0,1.85,1.46,1.79,1.79,0,0,0,1.83-1.46,15.59,15.59,0,0,0,.43-4.21,15.41,15.41,0,0,0-.43-4.27,1.78,1.78,0,0,0-1.83-1.39,1.8,1.8,0,0,0-1.85,1.39,14.86,14.86,0,0,0-.45,4.27,15,15,0,0,0,.45,4.21" transform="translate(-1 -1.6)"/></g></svg>